<svg xmlns="http://www.w3.org/2000/svg" viewBox="0 0 24 24" fill="none">
  <rect width="24" height="24" rx="6" fill="#0A101C"/>
  <g stroke="#22D3EE" stroke-width="1.7" stroke-linecap="round" stroke-linejoin="round">
    <path d="M15.20 12.00 L15.43 12.68 L15.51 13.45 L15.41 14.28 L15.11 15.11 L14.61 15.91 L13.91 16.62 L13.03 17.20 L12.00 17.60 L10.85 17.79 L9.63 17.73 L8.39 17.40 L7.19 16.81 L6.10 15.94 L5.16 14.83 L4.45 13.50 L4.00 12.00 L3.86 10.38 L4.05 8.71 L4.60 7.06 L5.49 5.49 L6.72 4.10 L8.25 2.95 L10.03 2.09 L12.00 1.60" opacity="1.00"/>
    <path d="M10.40 9.23 L10.87 8.69 L11.50 8.23 L12.27 7.91 L13.14 7.75 L14.08 7.78 L15.04 8.03 L15.98 8.51 L16.85 9.20 L17.59 10.10 L18.15 11.19 L18.49 12.43 L18.57 13.76 L18.37 15.14 L17.87 16.50 L17.08 17.79 L16.00 18.93 L14.67 19.86 L13.12 20.53 L11.42 20.88 L9.62 20.89 L7.80 20.52 L6.03 19.77 L4.41 18.66 L2.99 17.20" opacity="0.78"/>
    <path d="M10.40 14.77 L9.69 14.63 L8.99 14.31 L8.32 13.81 L7.75 13.14 L7.31 12.31 L7.04 11.35 L6.98 10.30 L7.15 9.20 L7.56 8.11 L8.23 7.08 L9.13 6.17 L10.24 5.43 L11.54 4.92 L12.97 4.66 L14.48 4.71 L16.00 5.07 L17.47 5.76 L18.82 6.76 L19.98 8.06 L20.89 9.62 L21.48 11.38 L21.72 13.28 L21.56 15.25 L21.01 17.20" opacity="0.56"/>
  </g>
  <circle cx="12" cy="12" r="1.7" fill="#1E90FF"/>
</svg>
